# xmcd
#
# Track frame offsets:
#	150
#	14303
#	29177
#	41966
#	59937
#	75730
#	90030
#	101859
#	116070
#	129821
#	146311
#	161361
#	177828
#	191326
#	206143
#	218217
#	233488
#	248757
#	263262
#	280344
#	297592
#	313475
#
# Disc length: 4407 seconds
#
# Revision: 1
# Processed by: cddbd v1.4PL0 Copyright (c) Steve Scherf et al.
# Submitted via: audiograbber 1.81.02
#
DISCID=42113516
DTITLE=Vários - Clássicos Sertanejo Volume 1
DYEAR=1900
DGENRE=Country
TTITLE0=Belmonte and Amaraí  - Saudae de Minha Terra
TTITLE1=Zé Carreiro and Carrerinho - Peito Sadio
TTITLE2=Tibagi and Miltinho  - Pé de Cedro
TTITLE3=Biá and Dino Franco  - A Sementinha
TTITLE4=Liu and Léo  - Ipê e o Prisioneiro
TTITLE5=Valdery and Mizael  - O Carro e a Felicidade
TTITLE6=Biá and Dino Franco  - Baldrana Macia
TTITLE7=Nenete and Dorinho - Goiano Valente
TTITLE8=Tião Carreiro and Pardinho  - Encanto da Natureza
TTITLE9=Moreno and Moreninho  - João Boiadeiro
TTITLE10=Liu and Léo - Boiadeiro Errante
TTITLE11=Pedro Bento and Zé da Estrada - Mágoa de Boiadeiro
TTITLE12=Nenete and Dorinho - Recordação
TTITLE13=Dino Franco and Morai - Caboclo na Cidade
TTITLE14=Tibagi and Miltinho - Passarinho do Peito Amarelo
TTITLE15=Duo Glacial  - Poeira
TTITLE16=Luizinho and Limeira - O Menino da Porteira
TTITLE17=Zé Carreiro and Carrerinho - Canoeiro
TTITLE18=Palmeira and Sabiá - Couro de Boi
TTITLE19=Sérgio Reis - Filho Adotivo
TTITLE20=Juno and Júlio  - Filho Prodígio
TTITLE21=Léo Canhoto and Robertinho - O Último Julgamento
EXTD=
EXTT0=
EXTT1=
EXTT2=
EXTT3=
EXTT4=
EXTT5=
EXTT6=
EXTT7=
EXTT8=
EXTT9=
EXTT10=
EXTT11=
EXTT12=
EXTT13=
EXTT14=
EXTT15=
EXTT16=
EXTT17=
EXTT18=
EXTT19=
EXTT20=
EXTT21=
PLAYORDER=
